#N canvas 108 279 967 423 10;
#X floatatom 197 65 5 0 0 0 - - -;
#X obj 365 120 netsend;
#X obj 333 33 loadbang;
#X floatatom 365 150 5 0 0 0 - - -;
#X obj 49 35 netreceive 3005 0 yo;
#X obj 49 325 netsend;
#X floatatom 49 355 5 0 0 0 - - -;
#X obj 226 324 metro 500;
#X obj 226 294 tgl 15 0 empty empty empty 17 7 0 10 -262144 -1 -1 0
1;
#X floatatom 293 299 5 0 0 0 - - -;
#X obj 333 210 print pd;
#X msg 49 265 connect localhost 3006 \, send pd->python Hi Python;
#X msg 333 180 loadbang;
#X msg 482 195 \; pd dsp 1 \; pd dsp 0;
#X obj 482 165 del 0;
#X text 529 164 <- no joke! otherwise Pd can't turn off dsp in -nogui
mode;
#X obj 49 85 route pd;
#X obj 49 165 route pd-py-socket;
#X obj 49 195 bang;
#X msg 226 354 send pd->python bang;
#X msg 365 90 connect localhost 3005 \, send pd->pd netsend;
#X obj 333 60 t b b b;
#X connect 1 0 3 0;
#X connect 2 0 21 0;
#X connect 4 0 16 0;
#X connect 4 1 0 0;
#X connect 5 0 6 0;
#X connect 7 0 19 0;
#X connect 8 0 7 0;
#X connect 9 0 7 1;
#X connect 11 0 5 0;
#X connect 12 0 10 0;
#X connect 14 0 13 0;
#X connect 16 0 17 0;
#X connect 16 1 10 0;
#X connect 17 0 18 0;
#X connect 18 0 11 0;
#X connect 19 0 5 0;
#X connect 20 0 1 0;
#X connect 21 0 12 0;
#X connect 21 1 20 0;
#X connect 21 2 14 0;
