#N canvas 108 279 620 381 10;
#X floatatom 165 65 5 0 0 0 - - -;
#X obj 49 165 loadbang;
#X msg 49 225 \; pd dsp 1 \; pd dsp 0;
#X obj 49 195 del 0;
#X text 96 194 <- no joke! otherwise Pd can't turn off dsp in -nogui
mode;
#X obj 49 35 netreceive 3005 0;
#X obj 49 75 print Pd;
#X connect 1 0 3 0;
#X connect 3 0 2 0;
#X connect 5 0 6 0;
#X connect 5 1 0 0;
